<svg fill="#9D9D9C" xmlns="http://www.w3.org/2000/svg" xmlns:xlink="http://www.w3.org/1999/xlink" version="1.1"
 id="Capa_1" x="0px" y="0px" viewBox="0 0 490 490" style="enable-background:new 0 0 490 490;" xml:space="preserve">
 <g>
  <path
   d="M245,0C109.69,0,0,109.69,0,245s109.69,245,245,245s245-109.69,245-245S380.31,0,245,0z M245,459.375   c-118.206,0-214.375-96.169-214.375-214.375c0-118.207,96.169-214.375,214.375-214.375c118.207,0,214.375,96.168,214.375,214.375   C459.375,363.206,363.207,459.375,245,459.375z" />
  <polygon
   points="170.627,130.355 108.401,213.975 155.308,213.975 155.308,317.839 185.933,317.839 185.933,213.975    232.853,213.975  " />
  <polygon
   points="334.692,172.161 304.067,172.161 304.067,276.025 257.147,276.025 319.373,359.644 381.599,276.025    334.692,276.025  " />
 </g>
 <g>
 </g>
 <g>
 </g>
 <g>
 </g>
 <g>
 </g>
 <g>
 </g>
 <g>
 </g>
 <g>
 </g>
 <g>
 </g>
 <g>
 </g>
 <g>
 </g>
 <g>
 </g>
 <g>
 </g>
 <g>
 </g>
 <g>
 </g>
 <g>
 </g>
</svg>